<?xml version="1.0" standalone="no"?>
<!DOCTYPE svg PUBLIC "-//W3C//DTD SVG 20010904//EN"
 "http://www.w3.org/TR/2001/REC-SVG-20010904/DTD/svg10.dtd">
<svg version="1.0" xmlns="http://www.w3.org/2000/svg"
 width="594.000000pt" height="594.000000pt" viewBox="0 0 594.000000 594.000000"
 preserveAspectRatio="xMidYMid meet">
<metadata>
Created by potrace 1.14, written by Peter Selinger 2001-2017
</metadata>
<g transform="translate(0.000000,594.000000) scale(0.100000,-0.100000)"
fill="#000000" stroke="none">
<path d="M2760 4325 c-118 -14 -232 -39 -272 -61 -14 -7 -32 -14 -38 -14 -17
0 -190 -87 -211 -106 -8 -8 -21 -14 -27 -14 -7 0 -12 -3 -12 -7 0 -5 -21 -21
-45 -38 -25 -16 -45 -33 -45 -37 0 -5 -4 -8 -10 -8 -5 0 -38 -30 -72 -66 -35
-37 -68 -72 -74 -78 -53 -55 -162 -240 -194 -326 -7 -19 -18 -48 -25 -65 -8
-16 -24 -77 -37 -135 -29 -132 -35 -351 -12 -450 8 -36 19 -87 25 -115 11 -50
86 -245 98 -255 3 -3 14 -21 23 -40 19 -37 39 -71 48 -80 3 -3 24 -30 46 -60
39 -51 148 -166 191 -200 53 -43 93 -70 101 -70 6 0 12 -4 14 -9 8 -22 225
-123 323 -149 142 -39 184 -44 341 -44 117 0 179 5 225 17 35 9 82 21 104 26
68 18 201 72 250 102 168 103 180 112 285 217 158 158 250 324 321 580 15 56
36 244 29 262 -4 10 -67 13 -295 12 -159 -1 -296 -2 -302 -3 -8 -1 -13 -17
-13 -45 0 -53 -22 -131 -64 -226 -32 -72 -125 -179 -201 -228 -22 -15 -42 -29
-45 -33 -7 -7 -107 -45 -145 -55 -16 -4 -37 -9 -45 -11 -137 -34 -375 23 -480
117 -73 65 -87 79 -110 109 -61 81 -91 148 -116 261 -29 134 -6 284 64 410 33
60 148 190 168 190 7 0 14 4 16 8 7 16 105 69 163 87 33 10 89 21 125 24 l64
6 1 293 c0 161 -2 298 -5 305 -6 15 -6 15 -130 2z"/>
<path d="M2827 3488 c-184 -32 -317 -188 -317 -371 0 -68 30 -171 63 -215 28
-37 110 -112 123 -112 8 0 14 -4 14 -10 0 -5 7 -10 15 -10 9 0 28 -6 43 -14
62 -32 200 -26 283 13 53 25 138 91 139 109 0 6 3 12 8 12 15 0 63 119 70 176
4 32 4 82 -1 109 -8 52 -56 165 -69 165 -4 0 -8 6 -8 13 -1 14 -111 97 -151
114 -25 11 -80 21 -139 27 -14 1 -47 -2 -73 -6z"/>
</g>
</svg>
